<svg xmlns="http://www.w3.org/2000/svg" xmlns:xlink="http://www.w3.org/1999/xlink" version="1.1" data-diagram-type="SEQUENCE" style="width:1513px;height:1461px;" width="1513px" height="1461px" viewBox="0 0 1513 1461" zoomAndPan="magnify" preserveAspectRatio="none" contentStyleType="text/css"><?plantuml 1.2026.7beta11?><defs/><g font-family="sans-serif" lengthAdjust="spacing"><g class="title" data-source-line="2"><text x="644.459" y="27.995" fill="#000" font-size="14" textLength="222.577" font-weight="700">角色交互与会话 ID 续接（时序图）</text></g><rect x="13" y="608.016" width="1480.496" height="549.539" fill="none" style="stroke:#000;stroke-width:1.5;"/><rect x="32" y="768.68" width="920.01" height="297.805" fill="none" style="stroke:#000;stroke-width:1.5;"/><g><title>..</title><rect x="44.5" y="125.891" width="8" height="1245.594" fill="#000" fill-opacity="0"/><line x1="48" y1="125.891" x2="48" y2="1371.484" style="stroke:#181818;stroke-width:0.5;stroke-dasharray:5,5;"/></g><g><title>supervised-coding</title><rect x="353.815" y="125.891" width="8" height="1245.594" fill="#000" fill-opacity="0"/><line x1="357.315" y1="125.891" x2="357.315" y2="1371.484" style="stroke:#181818;stroke-width:0.5;stroke-dasharray:5,5;"/></g><g><title>.....</title><rect x="792.704" y="125.891" width="8" height="1245.594" fill="#000" fill-opacity="0"/><line x1="796.204" y1="125.891" x2="796.204" y2="1371.484" style="stroke:#181818;stroke-width:0.5;stroke-dasharray:5,5;"/></g><g><title>coder ..</title><rect x="932.51" y="125.891" width="8" height="1245.594" fill="#000" fill-opacity="0"/><line x1="936.01" y1="125.891" x2="936.01" y2="1371.484" style="stroke:#181818;stroke-width:0.5;stroke-dasharray:5,5;"/></g><g><title></title><rect x="931.01" y="366.086" width="10" height="71.266" fill="#FFF" style="stroke:#181818;stroke-width:1;"/></g><g><title>tester ..</title><rect x="1228.351" y="125.891" width="8" height="1245.594" fill="#000" fill-opacity="0"/><line x1="1231.851" y1="125.891" x2="1231.851" y2="1371.484" style="stroke:#181818;stroke-width:0.5;stroke-dasharray:5,5;"/></g><g><title></title><rect x="1226.851" y="495.617" width="10" height="71.266" fill="#FFF" style="stroke:#181818;stroke-width:1;"/></g><g><title>committer ..</title><rect x="1350.996" y="125.891" width="8" height="1245.594" fill="#000" fill-opacity="0"/><line x1="1354.496" y1="125.891" x2="1354.496" y2="1371.484" style="stroke:#181818;stroke-width:0.5;stroke-dasharray:5,5;"/></g><g><title></title><rect x="1349.496" y="656.281" width="10" height="71.266" fill="#FFF" style="stroke:#181818;stroke-width:1;"/></g><text x="31" y="122.589" fill="#000" font-size="14" textLength="28">用户</text><ellipse cx="48" cy="58.094" rx="8" ry="8" fill="#E2E2F0" style="stroke:#181818;stroke-width:0.5;"/><path d="M48,66.094 L48,93.094 M35,74.094 L61,74.094 M48,93.094 L35,108.094 M48,93.094 L61,108.094" style="stroke:#181818;stroke-width:0.5;" fill="none"/><rect x="286.194" y="94.594" width="142.242" height="30.297" fill="#E2E2F0" style="stroke:#181818;stroke-width:0.5;" rx="2.5" ry="2.5"/><text x="293.194" y="114.589" fill="#000" font-size="14" textLength="128.242">supervised-coding</text><text x="758.204" y="106.292" fill="#000" font-size="14" textLength="70">检查点文件</text><text x="709.382" y="122.589" fill="#000" font-size="14" textLength="167.645">workflows/&lt;taskId>.md</text><path d="M778.204,57.297 C778.204,47.297 796.204,47.297 796.204,47.297 C796.204,47.297 814.204,47.297 814.204,57.297 L814.204,83.297 C814.204,93.297 796.204,93.297 796.204,93.297 C796.204,93.297 778.204,93.297 778.204,83.297 L778.204,57.297" style="stroke:#181818;stroke-width:0.5;" fill="#E2E2F0"/><path d="M778.204,57.297 C778.204,67.297 796.204,67.297 796.204,67.297 C796.204,67.297 814.204,67.297 814.204,57.297" style="stroke:#181818;stroke-width:0.5;" fill="none"/><rect x="893.026" y="94.594" width="85.969" height="30.297" fill="#E2E2F0" style="stroke:#181818;stroke-width:0.5;" rx="2.5" ry="2.5"/><text x="900.026" y="114.589" fill="#000" font-size="14" textLength="71.969">coder 会话</text><rect x="1187.998" y="94.594" width="87.705" height="30.297" fill="#E2E2F0" style="stroke:#181818;stroke-width:0.5;" rx="2.5" ry="2.5"/><text x="1194.998" y="114.589" fill="#000" font-size="14" textLength="73.705">tester 会话</text><rect x="1294.883" y="94.594" width="119.225" height="30.297" fill="#E2E2F0" style="stroke:#181818;stroke-width:0.5;" rx="2.5" ry="2.5"/><text x="1301.883" y="114.589" fill="#000" font-size="14" textLength="105.225">committer 会话</text><text x="31" y="1384.479" fill="#000" font-size="14" textLength="28">用户</text><ellipse cx="48" cy="1396.281" rx="8" ry="8" fill="#E2E2F0" style="stroke:#181818;stroke-width:0.5;"/><path d="M48,1404.281 L48,1431.281 M35,1412.281 L61,1412.281 M48,1431.281 L35,1446.281 M48,1431.281 L61,1446.281" style="stroke:#181818;stroke-width:0.5;" fill="none"/><rect x="286.194" y="1371.484" width="142.242" height="30.297" fill="#E2E2F0" style="stroke:#181818;stroke-width:0.5;" rx="2.5" ry="2.5"/><text x="293.194" y="1391.479" fill="#000" font-size="14" textLength="128.242">supervised-coding</text><text x="758.204" y="1384.479" fill="#000" font-size="14" textLength="70">检查点文件</text><text x="709.382" y="1400.776" fill="#000" font-size="14" textLength="167.645">workflows/&lt;taskId>.md</text><path d="M778.204,1414.078 C778.204,1404.078 796.204,1404.078 796.204,1404.078 C796.204,1404.078 814.204,1404.078 814.204,1414.078 L814.204,1440.078 C814.204,1450.078 796.204,1450.078 796.204,1450.078 C796.204,1450.078 778.204,1450.078 778.204,1440.078 L778.204,1414.078" style="stroke:#181818;stroke-width:0.5;" fill="#E2E2F0"/><path d="M778.204,1414.078 C778.204,1424.078 796.204,1424.078 796.204,1424.078 C796.204,1424.078 814.204,1424.078 814.204,1414.078" style="stroke:#181818;stroke-width:0.5;" fill="none"/><rect x="893.026" y="1371.484" width="85.969" height="30.297" fill="#E2E2F0" style="stroke:#181818;stroke-width:0.5;" rx="2.5" ry="2.5"/><text x="900.026" y="1391.479" fill="#000" font-size="14" textLength="71.969">coder 会话</text><rect x="1187.998" y="1371.484" width="87.705" height="30.297" fill="#E2E2F0" style="stroke:#181818;stroke-width:0.5;" rx="2.5" ry="2.5"/><text x="1194.998" y="1391.479" fill="#000" font-size="14" textLength="73.705">tester 会话</text><rect x="1294.883" y="1371.484" width="119.225" height="30.297" fill="#E2E2F0" style="stroke:#181818;stroke-width:0.5;" rx="2.5" ry="2.5"/><text x="1301.883" y="1391.479" fill="#000" font-size="14" textLength="105.225">committer 会话</text><path d="M296.948,138.891 L296.948,193.891 L1413.948,193.891 L1413.948,148.891 L1403.948,138.891 L296.948,138.891" style="stroke:#181818;stroke-width:0.5;" fill="#FEFFDD"/><path d="M1403.948,138.891 L1403.948,148.891 L1413.948,148.891 L1403.948,138.891" style="stroke:#181818;stroke-width:0.5;" fill="#FEFFDD"/><text x="703.495" y="155.958" fill="#000" font-size="13" textLength="295.82">每次 Task 调用前 supervised-coding 先向用户发</text><text x="703.495" y="171.09" fill="#000" font-size="13" textLength="293.744">"调用预告"（角色+目的+要点）并获同意后才调用</text><text x="703.495" y="186.223" fill="#000" font-size="13" textLength="186.685">（D28 确认闸门，下文箭头略）</text><polygon points="345.315,216.422,355.315,220.422,345.315,224.422,349.315,220.422" fill="#181818" style="stroke:#181818;stroke-width:1;stroke-linejoin:miter;stroke-miterlimit:10;"/><line x1="48" y1="220.422" x2="351.315" y2="220.422" style="stroke:#181818;stroke-width:1;"/><text x="55" y="215.356" fill="#000" font-size="13" textLength="52">下达需求</text><polygon points="784.204,245.555,794.204,249.555,784.204,253.555,788.204,249.555" fill="#181818" style="stroke:#181818;stroke-width:1;stroke-linejoin:miter;stroke-miterlimit:10;"/><line x1="357.315" y1="249.555" x2="790.204" y2="249.555" style="stroke:#181818;stroke-width:1;"/><text x="364.315" y="244.489" fill="#000" font-size="13" textLength="143">扫描历史检查点遗留事项</text><polygon points="784.204,274.688,794.204,278.688,784.204,282.688,788.204,278.688" fill="#181818" style="stroke:#181818;stroke-width:1;stroke-linejoin:miter;stroke-miterlimit:10;"/><line x1="357.315" y1="278.688" x2="790.204" y2="278.688" style="stroke:#181818;stroke-width:1;"/><text x="364.315" y="273.622" fill="#000" font-size="13" textLength="229.754">创建检查点（任务原文 / 会话 ID 字段）</text><polygon points="59,303.82,49,307.82,59,311.82,55,307.82" fill="#181818" style="stroke:#181818;stroke-width:1;stroke-linejoin:miter;stroke-miterlimit:10;"/><line x1="53" y1="307.82" x2="356.315" y2="307.82" style="stroke:#181818;stroke-width:1;"/><text x="65" y="302.754" fill="#000" font-size="13" textLength="285.315">复述需求 + 验收标准 + 遗留事项清单，请求确认</text><polygon points="345.315,332.953,355.315,336.953,345.315,340.953,349.315,336.953" fill="#181818" style="stroke:#181818;stroke-width:1;stroke-linejoin:miter;stroke-miterlimit:10;"/><line x1="48" y1="336.953" x2="351.315" y2="336.953" style="stroke:#181818;stroke-width:1;stroke-dasharray:2,2;"/><text x="55" y="331.887" fill="#000" font-size="13" textLength="26">确认</text><polygon points="919.01,362.086,929.01,366.086,919.01,370.086,923.01,366.086" fill="#181818" style="stroke:#181818;stroke-width:1;stroke-linejoin:miter;stroke-miterlimit:10;"/><line x1="357.315" y1="366.086" x2="925.01" y2="366.086" style="stroke:#181818;stroke-width:1;"/><text x="364.315" y="361.02" fill="#000" font-size="13" textLength="195.667">Task(需求 + 文档 + 检查点路径)</text><line x1="941.01" y1="395.219" x2="983.01" y2="395.219" style="stroke:#181818;stroke-width:1;"/><line x1="983.01" y1="395.219" x2="983.01" y2="408.219" style="stroke:#181818;stroke-width:1;"/><line x1="942.01" y1="408.219" x2="983.01" y2="408.219" style="stroke:#181818;stroke-width:1;"/><polygon points="952.01,404.219,942.01,408.219,952.01,412.219,948.01,408.219" fill="#181818" style="stroke:#181818;stroke-width:1;stroke-linejoin:miter;stroke-miterlimit:10;"/><text x="948.01" y="390.153" fill="#000" font-size="13" textLength="276.84">TDD 实现 + 自测 + 本地 commit [taskId] R1</text><polygon points="368.315,433.352,358.315,437.352,368.315,441.352,364.315,437.352" fill="#181818" style="stroke:#181818;stroke-width:1;stroke-linejoin:miter;stroke-miterlimit:10;"/><line x1="362.315" y1="437.352" x2="930.01" y2="437.352" style="stroke:#181818;stroke-width:1;stroke-dasharray:2,2;"/><text x="374.315" y="432.286" fill="#000" font-size="13" textLength="123.157">验证证据 + 改动清单</text><polygon points="784.204,462.484,794.204,466.484,784.204,470.484,788.204,466.484" fill="#181818" style="stroke:#181818;stroke-width:1;stroke-linejoin:miter;stroke-miterlimit:10;"/><line x1="357.315" y1="466.484" x2="790.204" y2="466.484" style="stroke:#181818;stroke-width:1;"/><text x="364.315" y="461.418" fill="#000" font-size="13" textLength="414.889">status=testing，写 filesChanged / commit SHA / coderTaskId=A</text><polygon points="1214.851,491.617,1224.851,495.617,1214.851,499.617,1218.851,495.617" fill="#181818" style="stroke:#181818;stroke-width:1;stroke-linejoin:miter;stroke-miterlimit:10;"/><line x1="357.315" y1="495.617" x2="1220.851" y2="495.617" style="stroke:#181818;stroke-width:1;"/><text x="364.315" y="490.551" fill="#000" font-size="13" textLength="105.352">Task(检查点路径)</text><line x1="1236.851" y1="524.75" x2="1278.851" y2="524.75" style="stroke:#181818;stroke-width:1;"/><line x1="1278.851" y1="524.75" x2="1278.851" y2="537.75" style="stroke:#181818;stroke-width:1;"/><line x1="1237.851" y1="537.75" x2="1278.851" y2="537.75" style="stroke:#181818;stroke-width:1;"/><polygon points="1247.851,533.75,1237.851,537.75,1247.851,541.75,1243.851,537.75" fill="#181818" style="stroke:#181818;stroke-width:1;stroke-linejoin:miter;stroke-miterlimit:10;"/><text x="1243.851" y="519.684" fill="#000" font-size="13" textLength="103.645">跑测试 / 勾选用例</text><polygon points="368.315,562.883,358.315,566.883,368.315,570.883,364.315,566.883" fill="#181818" style="stroke:#181818;stroke-width:1;stroke-linejoin:miter;stroke-miterlimit:10;"/><line x1="362.315" y1="566.883" x2="1225.851" y2="566.883" style="stroke:#181818;stroke-width:1;stroke-dasharray:2,2;"/><text x="374.315" y="561.817" fill="#000" font-size="13" textLength="142.467">testVerdict + 失败分类</text><polygon points="784.204,592.016,794.204,596.016,784.204,600.016,788.204,596.016" fill="#181818" style="stroke:#181818;stroke-width:1;stroke-linejoin:miter;stroke-miterlimit:10;"/><line x1="357.315" y1="596.016" x2="790.204" y2="596.016" style="stroke:#181818;stroke-width:1;"/><text x="364.315" y="590.95" fill="#000" font-size="13" textLength="262.685">testVerdict / testedSha / testerTaskId=B</text><path d="M13,608.016 L77.443,608.016 L77.443,615.148 L67.443,625.148 L13,625.148 L13,608.016" style="stroke:#000;stroke-width:1.5;" fill="#EEE"/><rect x="13" y="608.016" width="1480.496" height="549.539" fill="none" style="stroke:#000;stroke-width:1.5;"/><text x="28" y="621.083" fill="#000" font-size="13" textLength="19.443" font-weight="700">alt</text><text x="92.443" y="620.226" fill="#000" font-size="11" textLength="128.697" font-weight="700">[testVerdict = PASS]</text><polygon points="1337.496,652.281,1347.496,656.281,1337.496,660.281,1341.496,656.281" fill="#181818" style="stroke:#181818;stroke-width:1;stroke-linejoin:miter;stroke-miterlimit:10;"/><line x1="357.315" y1="656.281" x2="1343.496" y2="656.281" style="stroke:#181818;stroke-width:1;"/><text x="364.315" y="651.215" fill="#000" font-size="13" textLength="105.352">Task(检查点路径)</text><line x1="1359.496" y1="685.414" x2="1401.496" y2="685.414" style="stroke:#181818;stroke-width:1;"/><line x1="1401.496" y1="685.414" x2="1401.496" y2="698.414" style="stroke:#181818;stroke-width:1;"/><line x1="1360.496" y1="698.414" x2="1401.496" y2="698.414" style="stroke:#181818;stroke-width:1;"/><polygon points="1370.496,694.414,1360.496,698.414,1370.496,702.414,1366.496,698.414" fill="#181818" style="stroke:#181818;stroke-width:1;stroke-linejoin:miter;stroke-miterlimit:10;"/><text x="1366.496" y="680.348" fill="#000" font-size="13" textLength="104">语义审查（只读）</text><polygon points="368.315,723.547,358.315,727.547,368.315,731.547,364.315,727.547" fill="#181818" style="stroke:#181818;stroke-width:1;stroke-linejoin:miter;stroke-miterlimit:10;"/><line x1="362.315" y1="727.547" x2="1348.496" y2="727.547" style="stroke:#181818;stroke-width:1;stroke-dasharray:2,2;"/><text x="374.315" y="722.481" fill="#000" font-size="13" textLength="175.513">reviewVerdict + P1/P2 意见</text><polygon points="784.204,752.68,794.204,756.68,784.204,760.68,788.204,756.68" fill="#181818" style="stroke:#181818;stroke-width:1;stroke-linejoin:miter;stroke-miterlimit:10;"/><line x1="357.315" y1="756.68" x2="790.204" y2="756.68" style="stroke:#181818;stroke-width:1;"/><text x="364.315" y="751.614" fill="#000" font-size="13" textLength="328.739">reviewVerdict / reviewedSha / committerTaskId=C</text><path d="M32,768.68 L96.443,768.68 L96.443,775.813 L86.443,785.813 L32,785.813 L32,768.68" style="stroke:#000;stroke-width:1.5;" fill="#EEE"/><rect x="32" y="768.68" width="920.01" height="297.805" fill="none" style="stroke:#000;stroke-width:1.5;"/><text x="47" y="781.747" fill="#000" font-size="13" textLength="19.443" font-weight="700">alt</text><text x="111.443" y="780.89" fill="#000" font-size="11" textLength="193.305" font-weight="700">[NEEDS_CHANGES（纯代码问题）]</text><polygon points="924.01,812.945,934.01,816.945,924.01,820.945,928.01,816.945" fill="#181818" style="stroke:#181818;stroke-width:1;stroke-linejoin:miter;stroke-miterlimit:10;"/><line x1="357.315" y1="816.945" x2="930.01" y2="816.945" style="stroke:#181818;stroke-width:1;"/><text x="364.315" y="811.879" fill="#000" font-size="13" textLength="213.999">Task(task_id=A 续接，附意见原文)</text><polygon points="368.315,842.078,358.315,846.078,368.315,850.078,364.315,846.078" fill="#181818" style="stroke:#181818;stroke-width:1;stroke-linejoin:miter;stroke-miterlimit:10;"/><line x1="362.315" y1="846.078" x2="935.01" y2="846.078" style="stroke:#181818;stroke-width:1;stroke-dasharray:2,2;"/><text x="374.315" y="841.012" fill="#000" font-size="13" textLength="123.157">验证证据 + 逐条响应</text><polygon points="784.204,871.211,794.204,875.211,784.204,879.211,788.204,875.211" fill="#181818" style="stroke:#181818;stroke-width:1;stroke-linejoin:miter;stroke-miterlimit:10;"/><line x1="357.315" y1="875.211" x2="790.204" y2="875.211" style="stroke:#181818;stroke-width:1;"/><text x="364.315" y="870.145" fill="#000" font-size="13" textLength="344.786">status=fixing->testing，round+1，reviewedSha 置空</text><line x1="32" y1="884.211" x2="952.01" y2="884.211" style="stroke:#000;stroke-width:1;stroke-dasharray:2,2;"/><text x="37" y="896.421" fill="#000" font-size="11" textLength="204.305" font-weight="700">[NEEDS_CHANGES（需求边界问题）]</text><polygon points="59,919.148,49,923.148,59,927.148,55,923.148" fill="#181818" style="stroke:#181818;stroke-width:1;stroke-linejoin:miter;stroke-miterlimit:10;"/><line x1="53" y1="923.148" x2="356.315" y2="923.148" style="stroke:#181818;stroke-width:1;"/><text x="65" y="918.083" fill="#000" font-size="13" textLength="225.38">复述问题原文，请求确认/更新任务原文</text><polygon points="345.315,948.281,355.315,952.281,345.315,956.281,349.315,952.281" fill="#181818" style="stroke:#181818;stroke-width:1;stroke-linejoin:miter;stroke-miterlimit:10;"/><line x1="48" y1="952.281" x2="351.315" y2="952.281" style="stroke:#181818;stroke-width:1;stroke-dasharray:2,2;"/><text x="55" y="947.215" fill="#000" font-size="13" textLength="56.38">确认/更新</text><polygon points="784.204,977.414,794.204,981.414,784.204,985.414,788.204,981.414" fill="#181818" style="stroke:#181818;stroke-width:1;stroke-linejoin:miter;stroke-miterlimit:10;"/><line x1="357.315" y1="981.414" x2="790.204" y2="981.414" style="stroke:#181818;stroke-width:1;"/><text x="364.315" y="976.348" fill="#000" font-size="13" textLength="242.868">status=spec_confirm->implementing</text><line x1="32" y1="990.414" x2="952.01" y2="990.414" style="stroke:#000;stroke-width:1;stroke-dasharray:2,2;"/><text x="37" y="1002.625" fill="#000" font-size="11" textLength="77.671" font-weight="700">[APPROVED]</text><polygon points="784.204,1025.352,794.204,1029.352,784.204,1033.352,788.204,1029.352" fill="#181818" style="stroke:#181818;stroke-width:1;stroke-linejoin:miter;stroke-miterlimit:10;"/><line x1="357.315" y1="1029.352" x2="790.204" y2="1029.352" style="stroke:#181818;stroke-width:1;"/><text x="364.315" y="1024.286" fill="#000" font-size="13" textLength="156.235">校验双 SHA = 当前 HEAD</text><polygon points="59,1054.484,49,1058.484,59,1062.484,55,1058.484" fill="#181818" style="stroke:#181818;stroke-width:1;stroke-linejoin:miter;stroke-miterlimit:10;"/><line x1="53" y1="1058.484" x2="356.315" y2="1058.484" style="stroke:#181818;stroke-width:1;"/><text x="65" y="1053.418" fill="#000" font-size="13" textLength="117">汇报，请求确认交付</text><line x1="13" y1="1081.484" x2="1493.496" y2="1081.484" style="stroke:#000;stroke-width:1;stroke-dasharray:2,2;"/><text x="18" y="1093.695" fill="#000" font-size="11" textLength="123.406" font-weight="700">[testVerdict = FAIL]</text><polygon points="924.01,1116.422,934.01,1120.422,924.01,1124.422,928.01,1120.422" fill="#181818" style="stroke:#181818;stroke-width:1;stroke-linejoin:miter;stroke-miterlimit:10;"/><line x1="357.315" y1="1120.422" x2="930.01" y2="1120.422" style="stroke:#181818;stroke-width:1;"/><text x="364.315" y="1115.356" fill="#000" font-size="13" textLength="260.571">Task(task_id=A 续接，附 tester 报告原文)</text><polygon points="368.315,1145.555,358.315,1149.555,368.315,1153.555,364.315,1149.555" fill="#181818" style="stroke:#181818;stroke-width:1;stroke-linejoin:miter;stroke-miterlimit:10;"/><line x1="362.315" y1="1149.555" x2="935.01" y2="1149.555" style="stroke:#181818;stroke-width:1;stroke-dasharray:2,2;"/><text x="374.315" y="1144.489" fill="#000" font-size="13" textLength="52">修复完成</text><polygon points="345.315,1188.688,355.315,1192.688,345.315,1196.688,349.315,1192.688" fill="#181818" style="stroke:#181818;stroke-width:1;stroke-linejoin:miter;stroke-miterlimit:10;"/><line x1="48" y1="1192.688" x2="351.315" y2="1192.688" style="stroke:#181818;stroke-width:1;stroke-dasharray:2,2;"/><text x="55" y="1187.622" fill="#000" font-size="13" textLength="52">确认交付</text><polygon points="924.01,1232.953,934.01,1236.953,924.01,1240.953,928.01,1236.953" fill="#181818" style="stroke:#181818;stroke-width:1;stroke-linejoin:miter;stroke-miterlimit:10;"/><line x1="357.315" y1="1236.953" x2="930.01" y2="1236.953" style="stroke:#181818;stroke-width:1;"/><text x="364.315" y="1216.754" fill="#000" font-size="13" textLength="292.602">同步 origin/develop 后推 develop_opencode，</text><text x="364.315" y="1231.887" fill="#000" font-size="13" textLength="231.645">开 PR（base=develop，用户已授权）</text><polygon points="1342.496,1262.086,1352.496,1266.086,1342.496,1270.086,1346.496,1266.086" fill="#181818" style="stroke:#181818;stroke-width:1;stroke-linejoin:miter;stroke-miterlimit:10;"/><line x1="357.315" y1="1266.086" x2="1348.496" y2="1266.086" style="stroke:#181818;stroke-width:1;"/><text x="364.315" y="1261.02" fill="#000" font-size="13" textLength="185.631">gh pr review（终态评审留痕）</text><polygon points="924.01,1291.219,934.01,1295.219,924.01,1299.219,928.01,1295.219" fill="#181818" style="stroke:#181818;stroke-width:1;stroke-linejoin:miter;stroke-miterlimit:10;"/><line x1="357.315" y1="1295.219" x2="930.01" y2="1295.219" style="stroke:#181818;stroke-width:1;"/><text x="364.315" y="1290.153" fill="#000" font-size="13" textLength="234.546">evidence manifest 写 PR description</text><polygon points="784.204,1320.352,794.204,1324.352,784.204,1328.352,788.204,1324.352" fill="#181818" style="stroke:#181818;stroke-width:1;stroke-linejoin:miter;stroke-miterlimit:10;"/><line x1="357.315" y1="1324.352" x2="790.204" y2="1324.352" style="stroke:#181818;stroke-width:1;"/><text x="364.315" y="1319.286" fill="#000" font-size="13" textLength="160.38">回写遗留事项（清偿/移交）</text><polygon points="59,1349.484,49,1353.484,59,1357.484,55,1353.484" fill="#181818" style="stroke:#181818;stroke-width:1;stroke-linejoin:miter;stroke-miterlimit:10;"/><line x1="53" y1="1353.484" x2="356.315" y2="1353.484" style="stroke:#181818;stroke-width:1;"/><text x="65" y="1348.418" fill="#000" font-size="13" textLength="78">汇报合入请求</text><?plantuml-src bLPTJzjM6BxthpZYfgiOY-ZLL0sa5DX0chg8iDwi4tBZ0rWaTcGRs6Le-KWW9A45Kif7II65iP80edmaDFoPd6FxYh-mz_WuYHFefaee-1o_7y_xl5_MnsKbAcfY1BqGG-EZcZgXI3rgMDMGeOcA3g-mOWY6R8GnilPVMudJQcclMdfTlKnLhzzPnIqqq8lCyX5DvM-lupHxJaffib6vlKu8WXWom4wRkN90unTjIDJHxphM1B1fo24vAYe6QjCdebYRb7KiTOHKILP67RdWH5IGH4Dy8UeOjT7T67sVDrzUqRNvQldykJAbQkCZONLAz_raYFhuWDJzGqHo57i2pUR19jOGHye5s4MpZ85rerbeoBbfjHI9o4QBu22U50H5DJ1I9-4DmFxUkKE85jFqKmuD0Jna7Ry23aXY2Ts95f7PECaiSuf8UXaqsxYu_M66B2-q0QcSzdPpes2-csctFau34y0lkJgtKXSaawGpQP99qSGILmGJeDJxw4TavWfMOS_ENjhPWzlhPFLo4GWq2qTaxynSpRCKOKL23BuWiCoWZcuMmcC4abQbOc_6wCbB0MxOYvx0OqGJ_z1qcgJcIFgqdXHxEckkhbTBYtRkoYjCuXkaNAgB0QPgkKmMSYJr7c0W7shK3pdAqi9d1iZLPsZ0mjwITNFCOQ1sP1ycwSevtPadytFiwF5BBsV9qYh4Q1KlG9W7xiPK2ygzh4DaXV3OIT1tTHS0ZEPssKCDjdLH99MPXy83P7zSWunoZfcdcnMoiOrO_GtBKfUVLRiyAK8fy19pVhsEUY7EmhQPEWRprlmX_Rp8_6n-8fl7Y1SN-eDNyvzeiBEcNqCFmLl5QVYZImMcjt955Wvus8A4Mtnxig0ReZ6XTx4QXt83t6Hk7Ot8OQptZ8dAA9OW4QxtOB_VEO258GS715KpnJl2fUkRoNdI8CTjBVxFQzcwM0PAhE8gO22B5JkM05FLoc9TjCO42-KPrYGvP00HPE_4EikJ-9nvKlOIuVhnCE7LypadB0N7nDfpBUOdCBV2HfDq5mhuWq7eAzSQTFZNc43e_xZe0PawIZuhuBTkrYeULQyIf903kz0o97re5SkiCron6WiQdfJnL8E7GASly0Z1AB3sfq7MmmJtuI6YMTNddcjarEUSouU35mXvsjVN6npkwVS__QKl2CZCKh5QtZLtfkrimVxmbaDi-F5qLxr5wdiYQQ_FSAXy63nqL1-mXcU3CWEZAeQyezkPNWjyW5atss37qVZl7h5Z6RgL8s-MI6cb2LkZBKRalw0hEheRxU4imFPEzkIXnVnICFykWH4SXeNKIWKV7rRbobnDtij6qpXp17ZSBGFBHpVEwDgnTqmwLkwROwxiL-BIepWq75AL4LcBT7JBaMWOHs2FGuYr6Fo1mE1lp_fwMmtGdHpGID99Pnnq8VBb3LjS_Nt-thiHqPDvkf1lYO9z7vJVCZ-A93Y-cdlfP__0hy8t58hRdWWymK9i54nBygit1I2O598qdc5xJRXt_BlWcfsp7NgKHwecZygAJyAJEAn64TkfgGFa7eVLA5POIGAevmgvZg708AIUVQ1qkIBmnjtZ5wSq5QTRhpmRpMdkqJ4KrTn-OorKZjCOrEiCj3kiCZExwb5miO6i18unYeYAF09C83R00uE0ImzfSjIGLQLfwsviWu1tDxBFCjWJqpS-SxyCyTzPipoB91CditcUo7y1?></g></svg>